<svg xmlns="http://www.w3.org/2000/svg" viewBox="0 0 768 273.41"><defs><style>.cls-1{fill:#1476c6;}</style></defs><g id="Layer_2" data-name="Layer 2"><g id="Layer_1-2" data-name="Layer 1"><g id="layer1"><path id="path4535" class="cls-1" d="M409.79,97.44v95.41H380.67V155.34H350.35v37.51H321.23V97.44h29.12v37.93h30.32V97.44ZM511.1,173.69V97.44H482v95.41h52.66L539,173.69ZM460.44,97.44H431.32v95.41h29.12Zm118.09,0H549.41v95.41h29.12Zm143.6,24.35c0-5.19,5.19-7.58,13.56-7.58A73.33,73.33,0,0,1,761.62,119l-2.4-20.75a113,113,0,0,0-26.72-2.81C709,95.44,693,104.73,693,124.19c0,33.52,45.48,26.75,45.48,42.31,0,6-4.4,9.19-15.16,9.19-9.58,0-24.34-3.21-33.12-7.59l3.19,22c8.78,3.19,20.75,4.79,30.32,4.79,24.34,0,44.28-8,44.28-31.94,0-31.93-45.87-25.95-45.87-41.12m-37.9,10c0,24.35-17.15,38.33-44.28,38.33H629.57v22.74h-29.1V97.44a327,327,0,0,1,35.49-2c29.93,0,48.27,9.59,48.27,36.34m-28.72.39c0-12-6.79-18.76-21.14-18.76-1.49,0-3.1,0-4.8.1v39.42h4.8c15.15,0,21.14-8.38,21.14-20.76m-345.85-.39c0,24.35-17.15,38.32-44.28,38.32H255v22.75H225.89V97.44a327.21,327.21,0,0,1,35.5-2c29.92,0,48.27,9.59,48.27,36.34m-28.72.39c0-12-6.78-18.76-21.14-18.76-1.5,0-3.1,0-4.79.09v39.43h4.79c15.16,0,21.14-8.38,21.14-20.77"/><path id="path4648" class="cls-1" d="M187,214.16c-7.53.92-19,2.38-21.72,3.15a9.1,9.1,0,0,0-6.75,6.74c-.79,2.75-2.24,14.21-3.15,21.75A93.47,93.47,0,0,0,187,214.16m-79.67,45a92.56,92.56,0,0,0,45-11.59c-.87-7.36-2.51-20.54-3.36-23.52a9.11,9.11,0,0,0-6.74-6.74c-4.22-1.16-28.53-4-28.53-4v-1.68s24.31-2.79,28.53-4a9.09,9.09,0,0,0,6.74-6.74c1.14-4,3.71-26.28,4-28.68-16.67,3.08-28.1,10.77-42.43,18.1-15.24,7.8-30.11,13.38-49.45,13.38A83.3,83.3,0,0,1,17.8,191.42a93,93,0,0,0,89.53,67.74M15.84,58.72h10V50.93h3.55c9.28,0,15.15-4.77,15.15-13.11,0-9.15-6.28-12.43-16.52-12.43a112.13,112.13,0,0,0-12.15.68Zm32.63,0h10V45.88H68.81V58.72h10V26.07h-10v13H58.43v-13h-10Zm37.67,0h10V26.07h-10Zm17.34,0h18L123,52.16h-9.56V26.07h-10Zm23.06,0h10V26.07h-10Zm17.48,0h10V50.93h3.55c9.28,0,15.16-4.77,15.16-13.11,0-9.15-6.29-12.43-16.52-12.43a112.13,112.13,0,0,0-12.15.68ZM107.33,73.15A93.35,93.35,0,0,0,84.51,76c.39,3.28,1.5,12.36,2,14.25A5.06,5.06,0,0,0,90.3,94c2.32.64,15.42,2.12,15.42,2.12V97S92.62,98.56,90.3,99.2a5,5,0,0,0-3.74,3.73c-.52,1.81-1.55,10.14-2,13.75,7.75,1,16.07,2,16.07,2v1.68s-24.32,2.79-28.52,4A9.12,9.12,0,0,0,65.37,131c-1.11,3.87-3.53,25-3.9,28.13,17.13-3.12,31.78-12,42.78-17.31,15.63-7.55,29.95-13.74,49.49-13.74a82.77,82.77,0,0,1,43,12.21,93.06,93.06,0,0,0-89.37-67.18m83.92-23.44c0,2-1.5,3.14-5.19,3.14a29.83,29.83,0,0,1-11.33-2.6l1.09,7.51a32.83,32.83,0,0,0,10.38,1.65c8.32,0,15.15-2.74,15.15-10.94,0-10.92-15.7-8.88-15.7-14.06,0-1.78,1.78-2.6,4.64-2.6a25,25,0,0,1,8.87,1.64l-.81-7.11a39.47,39.47,0,0,0-9.15-.95c-8,0-13.52,3.17-13.52,9.83,0,11.48,15.57,9.16,15.57,14.49M154.53,172c.21,1.9,2.85,24.93,4,28.95a9.09,9.09,0,0,0,6.75,6.74c3,.83,16.14,2.48,23.5,3.37a92.67,92.67,0,0,0,10.89-33.76,86,86,0,0,0-45.14-5.3M49,114.71A9.09,9.09,0,0,0,55.78,108c.77-2.7,2.18-13.69,3.09-21.21a93.53,93.53,0,0,0-31,31c7.52-.92,18.46-2.33,21.16-3.08m-34,39.77a89.31,89.31,0,0,0,31.56,6.09,80.49,80.49,0,0,0,13.07-1.08c-.38-3.34-2.79-24.59-3.9-28.45A9.11,9.11,0,0,0,49,124.3c-2.93-.8-15.59-2.41-23-3.3a92.5,92.5,0,0,0-11,33.48m66.2-51.55a5,5,0,0,0-3.73-3.73c-1.85-.5-10.39-1.57-13.91-2,.65,4.86,1.31,9.22,1.76,10.78a9.1,9.1,0,0,0,6.75,6.74c1.6.44,6.12,1.12,11.09,1.79-.44-3.7-1.45-11.79-2-13.57m0-12.71c.53-1.83,1.59-10.4,2-13.92a92.51,92.51,0,0,0-21.2,8.6c.37,3.12.87,7.16,1.38,11,3.41-.4,12.2-1.46,14.08-2a5.06,5.06,0,0,0,3.73-3.74M15,177.68c11.77,7.49,28.14,11.19,41.86,11.19,20.79,0,33.3-6.19,47-13,18.83-9.39,34.47-19.31,59-19.18a82.13,82.13,0,0,1,37.42,9,93.9,93.9,0,0,0-.76-11.56c-11.75-7.43-28.07-11.25-41.74-11.25-20.78,0-33.26,6.35-47,13.16-17.6,8.75-34.45,19.25-58.93,19.25a81,81,0,0,1-37.59-9.07v0A97.36,97.36,0,0,0,15,177.67M214.58,5.88V166.05c0,59.15-48.14,107.36-107.29,107.36A106.83,106.83,0,0,1,0,166.05V5.88C14,4.16,58.76,0,107.3,0c47.44,0,92.87,3.9,107.28,5.88M132.67,230.76c-.52-1.81-1.71-12-1.71-12h-.73s-1.18,10.2-1.7,12a3.89,3.89,0,0,1-2.9,2.9c-1.82.5-12,1.71-12,1.71v.72s10.2,1.21,12,1.71a3.91,3.91,0,0,1,2.9,2.9c.52,1.81,1.7,12,1.7,12H131s1.19-10.2,1.71-12a3.94,3.94,0,0,1,2.91-2.9c1.81-.5,12-1.71,12-1.71v-.72s-10.2-1.21-12-1.71a3.92,3.92,0,0,1-2.91-2.9M163.34,38c0-4.1-2.32-6.42-7.23-6.42-.51,0-1.06,0-1.64,0V45.06h1.64c5.18,0,7.23-2.87,7.23-7.11M27.94,45.06H26.29V31.57c.58,0,1.13,0,1.65,0,4.91,0,7.23,2.32,7.23,6.42s-2.05,7.11-7.23,7.11"/></g></g></g></svg>