<svg fill="none" height="56" viewBox="0 0 57 56" width="57" xmlns="http://www.w3.org/2000/svg" xmlns:xlink="http://www.w3.org/1999/xlink"><clipPath id="a"><path d="m.5 0h56v56h-56z"/></clipPath><clipPath id="b"><path d="m3.30078.700195h50.4v54.6h-50.4z"/></clipPath><g clip-path="url(#a)"><g clip-path="url(#b)"><path d="m30.6384 11.9229c.4939 2.3838 1.116 6.8377 4.7431 8.5334 5.3012 2.4774 18.1551 4.2722 17.2985 4.4043-2.232.3441-7.5332 1.6654-11.1603 3.5785-2.4971 1.3158-6.0098 1.7893-8.6492 5.7807-1.9722 3.0433-3.0358 6.573-3.0691 10.185l-1.116.8258c.1701-1.2717-1.3951-5.7807-3.6272-13.4882-2.4729-3.0995-5.9003-5.3217-9.7652-6.3313 1.2499-.0495 6.5818-.3991 10.8813-4.6796 2.3865-2.4024 3.948-5.4836 4.4641-8.8086z" fill="#fff"/><g fill="#0f141e"><path d="m20.6299 26.1298c.8909.4457 1.7175 1.0067 2.458 1.6681 1.4509 1.3984 2.3269 3.1326 2.9938 4.9907.8091 2.2489 1.2611 4.5997 2.0451 6.857.283.8534.6376 1.6821 1.0602 2.4774.1758-1.0515.3599-2.1058.5246-3.1601 1.3113-8.3407 8.1051-13.2681 14.4693-14.1682.9933-.1404 1.7075.1954 1.928.9001.2036.6469-.2121 1.514-.9989 1.9077-1.2202.6111-2.4534 1.1928-3.6996 1.7452-4.1852 1.847-7.1789 4.7484-8.4233 9.2188-.5189 1.8553-1.0825 3.6996-1.621 5.5495-.195.8233-.538 1.6055-1.0128 2.3095-.9654 1.302-2.0758 1.247-2.8264-.1817-.5145-.9911-.8165-2.0762-.8872-3.1876-.2316-3.4409-.9068-6.7772-2.3437-9.9373-.664-1.4589-1.4341-2.8546-2.6394-3.9584-1.8526-1.7012-4.1265-1.9434-6.5065-1.7838-.6082.0413-1.2136.1294-1.8219.1955-1.0965.1183-1.8359-.2505-2.0061-1.0075-.1841-.8258.5274-1.9021 1.4593-2.1361.9318-.234 1.8581-.4102 2.79-.6001 2.3102-.479 4.4642-1.3764 6.5511-2.4307 3.5239-1.7672 5.4463-4.7126 6.434-8.3599.1757-.6497.3571-1.2993.558-1.9269s.558-1.25251 1.3811-1.31307c.5998-.04404 1.4927.63587 1.7521 1.32407.3374 1.0072.5747 2.0443.7087 3.0968.611 3.6225 2.606 5.9981 6.2861 6.8818.558.1376 1.1411.2615 1.7103.4046.3566.0828.7079.1866 1.0518.3111.2155.0612.4004.1987.5193.3861.119.1875.1636.4117.1253.6296-.0227.2209-.132.4242-.3045.5667-.1726.1425-.3947.2127-.6191.1958-1.2238.0371-2.4441-.1496-3.5992-.5505-2.5593-.902-4.7212-2.6536-6.1158-4.9549-.1116-.1789-.2288-.3551-.4241-.6552-.7561 2.4775-1.9112 4.5695-4.001 6.034-2.034 1.4314-4.3637 2.1746-6.9556 2.6619z"/><path d="m27.6094 52.4948c.0195-.3331.0139-.6745.0641-1.0048.0307-.4261.2256-.8244.5448-1.1131.3191-.2887.7382-.4459 1.1711-.4392s.8468.1767 1.1566.4752c.3098.2984.492.7026.5091 1.1294.0785.8405.0277 1.6878-.1506 2.5132-.0687.3323-.2457.6334-.5038.8573-.2582.2239-.5835.3584-.9264.3831-.3428.0246-.6844-.062-.9727-.2467-.2884-.1846-.5076-.4572-.6244-.7762-.2288-.5698-.2176-1.1754-.2678-1.7782z"/><path d="m51.5347 23.0848c.516-.0455 1.0317.09 1.4564.3826.2235.15.4054.3529.529.5901.1236.2371.185.5011.1787.7677-.0064.2667-.0804.5275-.2152.7586-.1348.2312-.3262.4253-.5567.5648-.4884.3209-1.0431.5305-1.6238.6138-.4732.0904-.9635-.0044-1.367-.2644-.4036-.2599-.6888-.6647-.7953-1.1285-.212-.9331.3739-1.8415 1.395-2.1608.3256-.0867.6617-.1284.9989-.1239z"/><path d="m5.57953 24.5361c.28184.0388.56128.0931.83702.1624.25259.0577.48169.1891.6574.3772.1757.1881.28984.4241.3275.6771.04453.2649.00585.5369-.11086.7795-.1167.2426-.30584.4442-.54202.5776-.58007.3715-1.26192.5579-1.95305.534-.36381.0001-.71521-.1304-.98865-.3671-.27343-.2368-.45022-.5636-.49736-.9195s.03858-.7166.24117-1.0147c.20258-.2981.5082-.5134.8598-.6055.38524-.0901.77563-.1572 1.16905-.201z"/><path d="m28.9632 2.4347c0-1.02951.5581-1.717687 1.4369-1.734203.8371-.016516 1.4648.646893 1.5318 1.610333.0444.45676-.0108.91761-.1618 1.35159-.0753.25686-.2301.4841-.4427.64993-.2126.16584-.4724.26197-.7431.27498-.2706.02009-.541-.04192-.7749-.17772-.2339-.13579-.4201-.33888-.5337-.58204-.2245-.42979-.3322-.90972-.3125-1.39287z"/></g></g></g></svg>