<svg fill="none" height="56" viewBox="0 0 57 56" width="57" xmlns="http://www.w3.org/2000/svg" xmlns:xlink="http://www.w3.org/1999/xlink"><clipPath id="a"><path d="m.5 0h56v56h-56z"/></clipPath><clipPath id="b"><path d="m.5 0h56v56h-56z"/></clipPath><clipPath id="c"><path d="m.5.700195h56.1791v55.3h-56.1791z"/></clipPath><g clip-path="url(#a)"><g clip-path="url(#b)"><g clip-path="url(#c)"><path d="m36.7341 7.56295 6.5359-5.88229c-.5027 1.432-.5528 2.98394-.1436 4.44538.4092 1.46145 1.2579 2.76171 2.4311 3.72446 1.3064 1.0213 2.9169 1.5762 4.5752 1.5762 1.6582 0 3.2687-.5549 4.5751-1.5762-1.9796 2.9896-2.9 6.5564-2.6144 10.1306.2581 2.8311 1.274 5.5404 2.9412 7.843-3.5895.1867-6.9984 1.6321-9.628 4.0824s-4.3117 5.7488-4.751 9.3162c-.5907-1.6989-1.6328-3.2048-3.0145-4.3563-1.3818-1.1514-3.051-1.9049-4.8285-2.1796-5.1405-.7614-8.5783 2.9902-8.8234 3.2679.4706-1.0392 2.8071-6.5031.3268-12.4181-1.0523-2.4691-2.7445-4.6126-4.9019-6.2091 2.84-.8295 5.3044-2.6184 6.973-5.0617s2.438-5.38965 2.1772-8.33682c1.4034.83885 2.9578 1.39401 4.5751 1.63397 1.1919.17374 2.4028.17374 3.5947 0z" fill="#fff"/><g fill="#0f141e"><path d="m.5 48.3365c.267971-.1961.232024-.5425.388885-.7974.095032-.1916.246555-.3495.434135-.4524.18758-.1028.40219-.1457.61487-.1227.21407.0183.41541.1094.57057.258s.2548.3459.28237.559c.08551.7004.22536 1.3931.41829 2.0718.55228 1.4739 1.36273 2.6993 3.03591 3.0457 1.05554.219 1.99344-.1764 2.87578-.6928.81832-.5167 1.54779-1.1623 2.16009-1.9117.3268-.3824.2451-.5588-.1144-.8725-2.67313-2.3399-4.08488-5.2287-3.76789-8.8496.06532-.7044.25218-1.3921.55228-2.0327.81045-1.7418 2.40521-2.3562 4.15681-1.5784 1.9183.8562 2.9019 2.4902 3.4706 4.3954.7973 2.6634.8529 5.33-.2059 7.9509-.1503.3693-.1144.5196.3268.6045 1.0733.2379 2.1872.224 3.2543-.0408s2.0583-.7732 2.8959-1.4853c1.5458-1.2581 2.7516-2.8267 3.9215-4.4182.5752-.7745 1.1373-1.5588 1.7255-2.3235.2614-.3268.6307-.5589 1.0392-.2647.4085.2941.3268.7124.0882 1.0686-1.6045 2.379-3.1666 4.7973-5.379 6.6894-2.4411 2.0915-5.1993 2.9771-8.379 2.1471-.4477-.1177-.5882.1045-.7777.3693-.9501 1.3819-2.1959 2.535-3.647 3.3757-4.09803 2.3072-8.55876.353-9.66659-4.2483-.042483-.1797.052284-.4575-.27451-.4804zm12.5587-3.3921c.0212-.3515.0212-.704 0-1.0556-.1863-1.4836-.4837-2.9411-1.5229-4.0947-.9804-1.0784-1.56532-.9346-2.00323.4347-.82025 2.5685.44771 6.3986 2.61433 7.9443.3432.2484.3889.036.4673-.183.3541-.9744.5053-2.0108.4445-3.0457z"/><path d="m21.7686 19.3271c1.5098 1.3268 2.7091 2.8365 3.232 4.7483.5849 2.134 1.0294 4.3039.6536 6.5359-.0619.3957-.1983.776-.402 1.1209-.0997.2034-.2669.3661-.4731.4602-.2061.0942-.4385.114-.6576.0561-.5-.1209-.598-.5196-.6307-.9804-.1177-1.5228.1372-3.049-.0915-4.5751-.1438-.9804-.3758-1.8431-1.1667-2.5457-1.0326-.9183-1.9052-2.0131-3.2385-2.5686-.446-.2269-.8129-.5835-1.0523-1.0229-.1525-.2112-.2573-.4531-.3071-.7088-.0498-.2558-.0434-.5193.0188-.7724.0621-.253.1786-.4895.3412-.6931.1627-.2035.3677-.3693.6007-.4858.8791-.4934 1.7876-.9411 2.6928-1.3888 3.2026-1.585 4.9901-4.134 5.3169-7.69604.0711-.74121.0711-1.48752 0-2.22873-.1568-1.63397.817-2.34964 2.3889-1.86926.6032.19928 1.1803.47028 1.7189.80718.2026.11765.4151.22549.6111.35294 2.7768 1.00979 4.8768 1.00979 7.7908-1.14705.856-.84606 1.5729-1.82215 2.1241-2.89212.4902-.888877 1.268-1.235278 2.3137-1.088221.8595.117646 1.3464.598031 1.5621 1.666651.2353 1.17645.2778 2.37905.5752 3.54897.4379 1.73855 1.5 2.81696 3.4542 2.72219 1.6339-.08169 3.2908-.03594 4.9019-.48692.2739-.07725.5642-.07428.8364.00855.2723.08284.5151.24206.6995.45877.4449.42606.7201.99895.7748 1.61249.0547.6135-.1149 1.2261-.4774 1.7241-.8644 1.263-1.6167 2.5992-2.2483 3.9934-1.049 2.2189-.7778 4.4901.1339 6.7091.6536 1.6143 1.5262 3.1274 2.3235 4.6731.2029.3709.3725.7592.5066 1.1601.2157.6928-.0523 1.0752-.7647 1.2059-.4902.0783-.991.0594-1.4739-.0556-3.3953-.7451-5.928.7092-8.1437 3.085-1.5957 1.6273-2.5833 3.7537-2.7973 6.0228-.1111 1.2451-.4869 2.4052-1.5327 3.2254-1.3725 1.0784-3.0424.768-3.8823-.7549-1.5294-2.7777-3.9738-4.1764-7.0097-4.6731-.8627-.1405-1.6732.2189-2.4379.5719-.7647.3529-1.5392.8071-2.3104 1.2124-.5304.3022-1.0986.533-1.6895.6862-.5.1079-.9804.0687-1.268-.366-.1444-.2016-.2285-.4402-.2424-.6879s.043-.4942.164-.7107c.3005-.5343.6946-1.0103 1.1634-1.4053 2.5392-2.2548 5.4247-2.8431 8.7286-2.0751 2.8431.6536 4.9379 2.3104 6.7483 4.4607.2092.2484.4314.487.7876.8856.1601-3.4346 1.4019-6.2515 3.7222-8.5489 2.2875-2.2483 4.7646-4.1012 8.2221-3.8757.0621-.3857-.2092-.5948-.3758-.8236-1.3366-1.8365-1.6079-3.9215-1.4869-6.111.1274-2.2876.5457-4.4771 1.5947-6.5359.3562-.696.2484-.8366-.5555-.8856-1.3628-.0817-2.732-.0261-4.0817-.2516-2.9052-.4902-4.8529-2.1013-5.8137-4.90192-.3267-.94116-.3463-.90522-1.1699-.3464-2.1992 1.5025-4.8757 2.14021-7.5162 1.79083-.6536-.07189-1.1928-.39869-1.8693-.62744.2359 1.66242-.1266 3.35453-1.0228 4.77443-1.6308 2.6726-4.1001 4.7306-7.0228 5.8529-.4608.1797-.9183.3693-1.3726.5555-.0228-.0098-.0359.0131-.1176.0981z"/><path d="m33.1057 26.3017c.0295-.4931.0295-.9874 0-1.4804-.0567-.6109-.2559-1.2-.5817-1.7199s-.769-.9561-1.2941-1.2735c-1.4869-.9478-1.4901-1.4477.0295-2.3137 1.3692-.7811 2.2875-1.8138 2.6143-3.3824.2386-1.0522.8105-1.2156 1.6111-.5.4145.3863.9049.682 1.44.8682.535.1863 1.1031.259 1.6678.2135.4363.004.8661-.1057 1.2472-.3183.381-.2126.7002-.5207.926-.8941.3856-.6274.696-.5784 1.0065.0883.1553.2884.2896.5876.402.8954.4607 1.5555 1.5261 2.4967 3.0163 2.9999.2352.0785.4575.121.513.3955.0217.1295.0017.2625-.057.3799-.0588.1175-.1532.2133-.2698.2736-.5994.4172-1.1654.8805-1.6928 1.3857-1.1568 1.1568-1.7777 2.5228-1.6503 4.1894.0294.3726.1046.7811-.3006 1.0131s-.7255.0327-1.0588-.1601c-.2647-.1503-.5327-.3007-.8039-.4379-1.8824-.9412-3.7353-.4706-4.9673 1.2516-.3039.4216-.5229 1.0555-1.2124.8431s-.4837-.8823-.5458-1.3889c-.0179-.3058-.0179-.6124 0-.9182zm-.9803-5.33c1.7679 1.1437 2.3267 2.8365 2.477 4.7809 2.134-1.5228 4.2288-1.4901 6.4052-.2483.0686-2.1667 1.0098-3.781 2.6666-5.0621-1.7222-.6535-2.7548-1.7777-2.8986-3.6306-1.4183.9804-2.8954 1.4019-4.5327 1.0228-.3267-.0751-.4019.1079-.4967.3268-.3594.8524-1.012 1.5479-1.8398 1.9608-.5327.3235-1.0915.5457-1.7712.8398z"/></g></g></g></g></svg>