<svg fill="none" height="56" viewBox="0 0 57 56" width="57" xmlns="http://www.w3.org/2000/svg" xmlns:xlink="http://www.w3.org/1999/xlink"><clipPath id="a"><path d="m3.30078 3.5h50.092v48.503h-50.092z"/></clipPath><g clip-path="url(#a)"><path d="m6.41017 16.0161c2.52039-2.0714 5.35633-3.7256 8.40003-4.9 3.094-1.22496 4.641-1.83396 7-2.09996 2.5856-.38775 5.2266-.14766 7.7.7 2.1004.74246 4.0121 1.93736 5.6 3.49996 2.429 2.415 3.283 4.97 4.2 7.7 1.4854 4.0234 1.966 8.3487 1.4 12.6-.441 3.038-2.296 9.275-4.2 10.5-3.7398 2.315-7.7325 4.1939-11.9 5.6-3.213 1.148-5.502 1.939-8.4 1.4-1.5951-.2117-3.0736-.9509-4.2-2.1-.427-.476-1.995-2.233-1.4-4.2.469-1.547 2.303-2.149 4.2-2.8 1.1299-.3895 2.3071-.6249 3.5-.7.9667-2.4501 1.4424-5.0663 1.4-7.7-.0691-2.3955-.5424-4.7621-1.4-7-.882-2.555-1.582-4.508-3.5-5.6-.6483-.3667-1.3614-.6044-2.1-.7-1.6624 1.2957-3.56608 2.2475-5.60003 2.8-1.029.266-1.617.294-2.1 0-1.113-.7-1.162-2.8-.7-4.2.40984-1.1193 1.14022-2.0931 2.1-2.8z" fill="#fff"/><path d="m36.5086 4.11621 16.1 2.8c-3.731 7.93099-3.269 7.46899-7 15.39999-3.5-.7-6.839-.833-7.7-3.5-1.19-3.682-.7-1.344-2.1-3.5-1.498-2.338-2.289-2.8-3.5-4.2.469-.7 3.031-5.83099 4.2-6.99999z" fill="#fff"/><g fill="#0f141e"><path d="m12.3947 50.4915c-.8741-.4572-1.6082-1.1423-2.1246-1.9827-.51631-.8405-.79566-1.805-.80838-2.7913-.10857-.7269.06106-1.468.475-2.0753.41398-.6073 1.04178-1.0361 1.75798-1.2007 4.9-1.547 9.8-3.157 14.7-4.732.7-.231 1.603-.805 1.932.448.259.987-.56 1.169-1.267 1.4-4.55 1.603-9.135 3.29-13.776 4.746-1.484.469-1.785 1.169-1.505 2.499.1487 1.0547.6849 2.0163 1.5042 2.697.8192.6808 1.8627 1.0319 2.9268.985 3.213.063 6.118-1.134 9.03-2.268 1.827-.7 3.633-1.484 5.453-2.198.42-.168.889-.602 1.309-.084.504.63-.357.98-.889 1.211-4.032 1.771-7.903 4.095-12.355 4.718-3.948.553-5.187-.679-6.363-1.372z"/><path d="m53.31 8.31591c-1.036 3.21299-2.492 5.07499-3.906 7.81899-.966 1.869-1.792 3.808-2.758 5.677-.252.49-.336 1.204-1.204 1.155-.994-.049-.189-1.113.049-1.652 1.701-3.766 3.437-7.525 5.124-11.291 1.155-2.56199 1.127-2.55499-1.561-2.96099-3.591-.546-7.182-1.057-10.759-1.694-1.267-.224-1.68.063-2.401 1.302-.4264.75978-.9435 1.46494-1.54 2.1-.1778.17409-.4063.28725-.6526.32322-.2463.03596-.4976-.00713-.7178-.12308-.2202-.11594-.398-.29876-.5077-.52215s-.1457-.47583-.1029-.72099c.476-3.122 2.611-4.536 6.377-4.2 4.326.392 8.673.644 12.88 1.771.3947.10399.7562.30713 1.0502.59014.2941.28301.5109.63649.6298 1.02686.1159.45948.1159.94053 0 1.4z"/><path d="m30.9719 9.10653c4.137 2.00897 8.085 8.02197 9.737 12.31297 2.2576 5.675 2.419 11.9688.455 17.752-.6172 1.9682-1.9021 3.6591-3.633 4.781-.9776.5758-2.104.8485-3.2367.7837s-2.2207-.4642-3.1263-1.1477c-1.4-1.246-1.876-4.2-.91-6.118.2089-.5517.5866-1.0233 1.0794-1.3476.4927-.3244 1.0753-.4848 1.6646-.4584.5174.0265 1.0128.2173 1.4144.5446.4015.3273.6883.7741.8186 1.2754.1701.531.1825 1.0999.0359 1.6379-.1465.5379-.4459 1.0218-.8619 1.3931-.243.3096-.5715.5409-.9449.6654-.3733.1244-.775.1365-1.1551.0346 0 0 2.415 1.785 4.2 0 1.4-1.4 1.4-4.9 1.4-8.4 0-7.7-1.4-11.2-4.9-17.5-2.254-4.053-5.544-5.187-7.7-1.113-.217.406-.35.861-.917.616s-.483-.7-.392-1.127c.392-1.918 1.827-3.01 3.696-4.19997-1.5976-.45774-3.2876-.48671-4.9-.084-4.7399 1.32897-9.302 3.22577-13.58697 5.64897-4.2 2.359-4.9 3.059-4.2 5.159.12798.5123.36695.9903.7 1.4.476.441 1.582.238 2.1 0 4.16497-1.897 7.82597-4.2 11.99797-6.097.3924-.1916.8027-.344 1.225-.455.427-.105.917-.14 1.085.406.133.427-.21.7-.532.833-1.512.728-6.076 3.213-6.076 3.213s-.238-.035.931 1.274c3.269 3.626 4.424 8.022 3.969 12.866-.042.455-.14.896-.224 1.344-.133.7-.189 1.463-1.113 1.4-1.134-.049-.847-1.043-.798-1.687.378-4.676-1.274-8.687-3.857-12.467-.7-1.008-1.218-1.106-2.254-.7-2.009.91-3.03097 1.358-5.05397 2.17-.882.357-2.506.532-3.01-.399-1.19-2.233-1.113-5.502.91-7.063 5.82397-4.571 11.19997-7.93797 19.84497-8.70797 2.555-.224 4.585.819 6.118 1.561zm3.038 29.09197c-.098-.791-.791-.896-1.477-.847s-1.141.364-1.015 1.064c.0199.1693.0762.3323.1653.4776.089.1454.2086.2696.3504.3641.1418.0946.3025.1572.4709.1835s.3405.0156.5044-.0312c.1484-.0051.294-.0417.4272-.1073.1333-.0655.2511-.1586.3457-.2731.0946-.1144.1638-.2476.2031-.3908.0394-.1432.0479-.2931.025-.4398z"/><path d="m10.3165 38.6116c-1.21452-.0122-2.3771-.4944-3.24373-1.3454-.86664-.851-1.36994-2.0046-1.40427-3.2186-.042-2.744 2.408-5.397 4.984-5.404 2.8 0 5.25 2.282 5.187 4.837-.07 2.716-2.695 5.159-5.523 5.131z"/><path d="m45.0618 9.6528c.2523-.03028.5072.02833.7208.16574.2137.13741.3728.34506.4499.58706.0771.2421.0674.5035-.0275.7391-.0948.2357-.2689.4309-.4922.5521-1.4.7-2.856 1.4-4.263 2.1-1.232.637-1.897.203-2.24-1.036-.273-.973-.574-1.939-.875-2.905-.189-.581-.322-1.141.427-1.4.1184-.04699.2451-.06973.3724-.06689.1274.00284.2529.03121.369.08343.1162.05222.2208.12723.3074.22058.0867.09335.1538.20314.1972.32288 1.4 2.8 0 3.5 4.277.959.2399-.14873.5023-.25748.777-.322z"/><path d="m47.5633 26.8454c.833-.784 1.638.315 1.281 1.477-.952 3.136-1.134 6.594-1.743 9.611-.1469.6321-.3826 1.2401-.7 1.806-.1009.1981-.2657.3563-.4677.449-.202.0928-.4294.1146-.6453.062-.2501-.053-.4743-.1905-.6349-.3894s-.2479-.4469-.2471-.7026c.0216-1.0164.2603-2.0164.7-2.933 1.204-3.409.7-7.714 2.457-9.38z"/><path d="m45.4776 27.0481c-.1587.0637-.33.0898-.5005.0761s-.3354-.0667-.482-.1548c-.1465-.0882-.2706-.2092-.3625-.3534-.0918-.1443-.149-.3078-.167-.4779-.112-.7.364-1.001 1.015-1.155 1.2566-.3797 2.3945-1.0764 3.304-2.023.833-.742 1.645-.896 1.834.483.2219 1.4502.9693 2.7682 2.1 3.703.357.329.903.7.392 1.253s-.91.063-1.337-.238c-1.092-.763-1.729-1.869-2.31-3.458-.497 1.001-1.953 1.813-3.486 2.345z"/><path d="m24.609 29.9669c-.1178.0301-.2426.0165-.3512-.0382-.1086-.0546-.1938-.1467-.2398-.2593-.046-.1125-.0498-.2379-.0107-.3531.0391-.1151.1186-.2122.2237-.2734 2.5942-1.4208 5.3389-2.5478 8.183-3.36.1657-.0769.3513-.1.5308-.0661.1796.0338.344.1231.4702.2551.0408.0612.0674.1306.0781.2033s.0051.1469-.0163.2172-.0581.135-.1076.1894c-.0494.0544-.1103.0971-.1782.1251-2.877 1.141-5.635 2.548-8.582 3.36z"/><path d="m33.9691 22.1195c-.112.308-.546.406-.861.546-2.926 1.2694-5.8544 2.527-8.785 3.773-.525.224-1.211.546-1.47-.231-.203-.602.483-.812.924-.994 2.933-1.232 5.88-2.457 8.834-3.64.49-.203 1.799-.658 1.358.546z"/><path d="m22.0204 24.1289c-.154.0253-.3121-.0016-.4491-.0764-.1369-.0748-.245-.1933-.3069-.3366-.028-.0659-.0422-.1369-.0417-.2085.0004-.0717.0156-.1425.0444-.208.0289-.0656.0708-.1246.1233-.1733.0525-.0488.1145-.0863.182-.1102 3.178-1.4 6.209-3.122 9.506-4.256.287-.098.588-.175.742.147.0767.1673.0844.358.0215.5309-.0629.173-.1913.3142-.3575.3931-3.15 1.414-6.874 3.885-9.464 4.298z"/></g></g></svg>