<svg fill="none" height="56" viewBox="0 0 57 56" width="57" xmlns="http://www.w3.org/2000/svg" xmlns:xlink="http://www.w3.org/1999/xlink"><clipPath id="a"><path d="m2.60156 5.59961h51.8v45.423h-51.8z"/></clipPath><g clip-path="url(#a)"><path d="m15.8597 10.7234c.7982-1.1487 1.7964-2.14454 2.947-2.93999 1.05-.7 2.527-1.701 4.424-1.477 1.1332.104 2.1855.63141 2.947 1.477 1.4 1.694.854 3.96199.7 4.41699-.5082 1.7388-1.5366 3.2802-2.947 4.417 2.947.742 4.781-.833 5.894-1.47 1.673-.959 1.764-1.988 4.417-4.424 1.953-1.77799 2.94-2.68099 4.424-2.93999 2.569-.462 4.9 1.309 5.894 2.205.5566-.33234 1.1927-.50782 1.841-.50782s1.2844.17548 1.841.50782c1.449.97299 1.925 3.27599.7 5.15899 1.1343.0946 2.1891.6208 2.947 1.47 2.191 2.8-1.127 8.617-2.947 11.788s-6.223 10.066-15.4 16.212c-5.278 3.5-7.91 5.299-11.788 5.152-6.048-.217-10.255-4.858-12.523-7.364-2.1-2.345-5.957-6.573-5.894-12.523.042-4.011 1.862-7.049 2.947-8.841 2.996-4.97 5.831-4.97 9.576-10.318z" fill="#fff"/><g fill="#0f141e"><path d="m54.4025 18.8721c.0067 1.3079-.2529 2.6035-.763 3.808-2.681 6.692-6.937 12.369-11.767 17.675-3.5144 3.8166-7.6847 6.9722-12.313 9.317-2.0809 1.0514-4.4089 1.5161-6.734 1.344-.777-.042-1.68-.273-1.799-1.148s.763-1.057 1.4-1.288c7.231-2.618 12.719-7.308 17.311-13.412 3.024-3.983 6.608-7.539 9.905-11.319.9781-.9962 1.7532-2.173 2.282-3.465.448-1.316.385-2.597-.868-3.542s-2.387-.28-3.311.56c-2.205 1.981-3.647 4.578-5.397 6.923-.322.427-.574.917-.931 1.323s-.98.833-1.589.294-.252-1.008.105-1.4c2.282-2.723 4.095-5.81 6.594-8.351.2916-.2586.5696-.5319.833-.819.973-1.211 1.736-2.681.616-3.983s-2.576-.385-3.766.329c-1.358.812-2.191 2.149-3.15 3.36-1.148 1.4513-2.3147 2.884-3.5 4.298-.343.406-.791.826-1.4.343s-.266-.833 0-1.225c1.743-2.541 3.269-5.257 5.6-7.336 1.255-1.17439 2.9015-1.8405 4.62-1.86904 4.809 0 4.074 5.13804 4.074 5.13804s3.269.959 3.829 3.703c.0615.2433.1013.4916.119.742z"/><path d="m25.9182 6.49523c2.961 2.611 2.73 7.16797-.875 9.61097-.56.378-1.176.896-1.834.133s-.077-1.302.336-1.827c.7992-.8396 1.4841-1.7811 2.037-2.8.497-1.113.749-2.18397-.084-3.25497-.91-1.176-2.142-1.099-3.381-.826-.9821.26622-1.8713.79926-2.569 1.54-3.2526 3.06367-6.3283 6.30987-9.212 9.72297-3.36 4.025-3.248 8.659-2.702 13.377.154 1.4.511 2.723.742 4.088.161.959.105 1.904-.896 2.408-1.155.581-1.939-.182-2.583-.952-2.051-2.45-2.296-5.481-2.296-8.498-.04305-1.9417.30681-3.8722 1.02855-5.6753.72175-1.8032 1.80049-3.4419 3.17145-4.8177 4.9-4.858 8.939-12.93597 15.967-13.15297 1.125-.06334 2.2375.26298 3.15.924z"/><path d="m24.6729 42.7415c-5.775 0-10.969-5.264-10.962-10.78 0-.77.175-1.47.959-1.631s1.008.504 1.232 1.141c.399 1.078.784 2.17 1.267 3.213 1.743 3.759 3.948 5.047 8.078 4.788 5.796-.364 10.556-5.677 10.325-11.011-.28-6.461-7.168-10.332-13.461-7.616-2.5665 1.1087-4.6555 3.0935-5.894 5.6-.336.651-.7 1.617-1.659 1.141-.791-.399-.315-1.26-.161-1.89 1.19-4.83 8.295-8.925 13.699-7.903 5.761 1.078 9.506 5.187 9.695 10.738.266 6.37-3.535 11.949-9.317 13.608-1.2184.4357-2.5075.6398-3.801.602z"/><path d="m43.7534 8.56713c0 .77-.434.959-1.015.525-2.289-1.701-4.081-.511-5.761.98697-1.841 1.638-3.591 3.381-5.383 5.075-.581.546-1.281 1.127-2.016.511s-.434-1.603.147-2.261c2.205-2.485 4.522-4.89997 7.567-6.35597.8217-.44179 1.744-.66246 2.6767-.64037.9326.02209 1.8435.28618 2.6433.76637.2921.11731.5498.30651.7493.55003s.3342.53348.3917.84297z"/><path d="m25.4573 34.5447c-1.932 0-3.465-.7-4.326-2.506-.273-.574-.497-1.218.168-1.652s1.12 0 1.589.476c2.625 2.723 3.29 1.967 5.691.14.413-.315.777-.973 1.344-.574s.343 1.078 0 1.631c-.468.7632-1.1249 1.3927-1.9072 1.828s-1.6635.6616-2.5588.657z"/><path d="m13.0999 45.8563c-.0128.1464-.059.2879-.135.4136-.0761.1257-.1801.2322-.3039.3113-.1238.0792-.2641.1288-.4101.1451s-.2938-.0011-.432-.051c-1.085-.224-4.31905-3.388-4.45205-4.417-.105-.784.133-1.4 1.022-1.449.805-.063 4.80205 4.172 4.71105 5.047z"/><path d="m30.168 25.312c.1681.2885.2502.6191.2366.9528-.0137.3336-.1225.6564-.3136.9302-.148.2164-.3537.3868-.5938.492s-.5049.1409-.7642.103c-.2143-.0036-.4254-.0518-.6199-.1417-.1945-.0898-.3681-.2192-.5098-.38-.1416-.1607-.2482-.3493-.3128-.5535-.0646-.2043-.0859-.4198-.0625-.6328-.0018-.2142.0432-.4262.1319-.6212.0888-.195.219-.3683.3817-.5076.1627-.1394.3539-.2415.5602-.2992s.4228-.0697.6342-.035c.2477-.0006.4913.0629.7072.1843s.3967.2967.5248.5087z"/><path d="m21.5006 24.9686c.2832-.181.6155-.2701.9513-.2551.3358.0151.6587.1335.9247.3391.2056.1515.364.3582.4569.5961.0929.2378.1165.4972.0681.7479-.0053.1954-.0515.3875-.1355.564-.0841.1765-.2042.3334-.3525.4607-.1484.1273-.3218.222-.509.2783-.1872.0562-.3841.0725-.578.048-.2144-.0005-.426-.0481-.6199-.1395-.1939-.0913-.3654-.2242-.5023-.3891-.1369-.165-.2359-.358-.2899-.5654-.0541-.2074-.0619-.4242-.0229-.635.0162-.2095.0793-.4126.1848-.5944.1054-.1818.2504-.3375.4242-.4556z"/></g></g></svg>